<svg width="52" height="52" viewBox="0 0 52 52" fill="none" xmlns="http://www.w3.org/2000/svg">
<circle cx="26" cy="26" r="25.5" stroke="#7A7A7A"/>
<path d="M25.9997 13.8127C23.116 13.8127 20.7764 16.1523 20.7764 19.036C20.7764 21.9196 23.116 24.2592 25.9997 24.2592C28.8833 24.2592 31.2229 21.9196 31.2229 19.036C31.2229 16.1523 28.8833 13.8127 25.9997 13.8127ZM23.388 26.0002C19.049 26.0002 15.5532 29.496 15.5532 33.8351V34.7056C15.5532 36.6371 17.1039 38.1877 19.0354 38.1877H32.9639C34.8954 38.1877 36.4461 36.6371 36.4461 34.7056V33.8351C36.4461 29.496 32.9503 26.0002 28.6113 26.0002H23.388Z" fill="#7A7A7A"/>
</svg>
