<svg width="30" height="30" viewBox="0 0 30 30" fill="none" xmlns="http://www.w3.org/2000/svg">
<path d="M2.90382 27.0962L2.90379 27.0961C2.02223 26.2146 1.52535 25.0278 1.26567 23.0963C1.00212 21.136 1 18.5638 1 15C1 11.4362 1.00212 8.86394 1.26567 6.90371C1.52535 4.97224 2.02223 3.78539 2.90381 2.90381L2.90381 2.90381C3.78539 2.02223 4.97224 1.52535 6.90371 1.26567C8.86394 1.00212 11.4362 1 15 1C18.5638 1 21.136 1.00212 23.0963 1.26567C25.0278 1.52535 26.2146 2.02223 27.0961 2.90379L27.0962 2.90382C27.9778 3.7854 28.4746 4.97225 28.7343 6.90371C28.9979 8.86394 29 11.4362 29 15C29 18.5638 28.9979 21.136 28.7343 23.0963C28.4746 25.0278 27.9778 26.2146 27.0962 27.0961L27.0961 27.0962C26.2146 27.9778 25.0278 28.4746 23.0963 28.7343C21.136 28.9979 18.5638 29 15 29C11.4362 29 8.86394 28.9979 6.90371 28.7343C4.97225 28.4746 3.7854 27.9778 2.90382 27.0962Z" fill="white" stroke="#1E4391" stroke-width="2"/>
</svg>
