<svg width="30" height="30" viewBox="0 0 30 30" fill="none" xmlns="http://www.w3.org/2000/svg">
<path fill-rule="evenodd" clip-rule="evenodd" d="M15 30C7.92893 30 4.39339 30 2.1967 27.8032C-1.78814e-07 25.6066 0 22.071 0 15C0 7.92893 -1.78814e-07 4.39339 2.1967 2.1967C4.39339 -1.78814e-07 7.92893 0 15 0C22.071 0 25.6066 -1.78814e-07 27.8032 2.1967C30 4.39339 30 7.92893 30 15C30 22.071 30 25.6066 27.8032 27.8032C25.6066 30 22.071 30 15 30ZM21.0455 10.4545C21.4848 10.8938 21.4848 11.6062 21.0455 12.0455L13.5455 19.5455C13.1061 19.9848 12.3939 19.9848 11.9545 19.5455L8.9545 16.5455C8.51517 16.1061 8.51517 15.3939 8.9545 14.9545C9.39384 14.5152 10.1062 14.5152 10.5455 14.9545L12.75 17.1589L19.4545 10.4545C19.8939 10.0152 20.6061 10.0152 21.0455 10.4545Z" fill="#1E4391"/>
</svg>
