<svg width="60" height="60" viewBox="0 0 60 60" fill="none" xmlns="http://www.w3.org/2000/svg">
<circle cx="30" cy="30" r="30" fill="white"/>
<path fill-rule="evenodd" clip-rule="evenodd" d="M39.1213 20.7071C37.9497 19.5355 36.0503 19.5355 34.8787 20.7071L33.1989 22.3869L25.2929 30.2928C25.1647 30.421 25.0738 30.5816 25.0299 30.7574L24.0299 34.7574C23.9447 35.0982 24.0445 35.4587 24.2929 35.707C24.5413 35.9554 24.9018 36.0553 25.2425 35.9701L29.2425 34.9701C29.4184 34.9261 29.5789 34.8352 29.7071 34.707L37.5556 26.8586L39.2929 25.1213C40.4645 23.9497 40.4645 22.0502 39.2929 20.8786L39.1213 20.7071ZM36.2929 22.1213C36.6834 21.7307 37.3166 21.7307 37.7071 22.1213L37.8787 22.2928C38.2692 22.6834 38.2692 23.3165 37.8787 23.7071L36.8622 24.7236L35.3068 23.1074L36.2929 22.1213ZM33.8923 24.5219L35.4477 26.138L28.4888 33.097L26.3744 33.6256L26.903 31.5112L33.8923 24.5219ZM22 25.9999C22 25.4477 22.4477 24.9999 23 24.9999H28C28.5523 24.9999 29 24.5522 29 23.9999C29 23.4477 28.5523 22.9999 28 22.9999H23C21.3432 22.9999 20 24.3431 20 25.9999V36.9999C20 38.6568 21.3432 39.9999 23 39.9999H34C35.6569 39.9999 37 38.6568 37 36.9999V31.9999C37 31.4477 36.5523 30.9999 36 30.9999C35.4477 30.9999 35 31.4477 35 31.9999V36.9999C35 37.5522 34.5523 37.9999 34 37.9999H23C22.4477 37.9999 22 37.5522 22 36.9999V25.9999Z" fill="#1E4391"/>
</svg>
