<svg width="33" height="30" viewBox="0 0 33 30" fill="none" xmlns="http://www.w3.org/2000/svg">
<path d="M12.6666 3.75H5.99996C5.26358 3.75 4.66663 4.30964 4.66663 5V11.25C4.66663 11.9404 5.26358 12.5 5.99996 12.5H12.6666C13.403 12.5 14 11.9404 14 11.25V5C14 4.30964 13.403 3.75 12.6666 3.75Z" stroke="white" stroke-width="2"/>
<path d="M12.6666 17.5H5.99996C5.26358 17.5 4.66663 18.0596 4.66663 18.75V25C4.66663 25.6904 5.26358 26.25 5.99996 26.25H12.6666C13.403 26.25 14 25.6904 14 25V18.75C14 18.0596 13.403 17.5 12.6666 17.5Z" stroke="white" stroke-width="2"/>
<path d="M27.3333 3.75H20.6666C19.9302 3.75 19.3333 4.30964 19.3333 5V11.25C19.3333 11.9404 19.9302 12.5 20.6666 12.5H27.3333C28.0696 12.5 28.6666 11.9404 28.6666 11.25V5C28.6666 4.30964 28.0696 3.75 27.3333 3.75Z" stroke="white" stroke-width="2"/>
<path d="M21.3333 16.25H18.6667C18.2985 16.25 18 16.5298 18 16.875V19.375C18 19.7202 18.2985 20 18.6667 20H21.3333C21.7015 20 22 19.7202 22 19.375V16.875C22 16.5298 21.7015 16.25 21.3333 16.25Z" fill="white"/>
<path d="M25.3333 20H22.6667C22.2985 20 22 20.2798 22 20.625V23.125C22 23.4702 22.2985 23.75 22.6667 23.75H25.3333C25.7015 23.75 26 23.4702 26 23.125V20.625C26 20.2798 25.7015 20 25.3333 20Z" fill="white"/>
<path d="M29.3333 16.25H26.6667C26.2985 16.25 26 16.5298 26 16.875V19.375C26 19.7202 26.2985 20 26.6667 20H29.3333C29.7015 20 30 19.7202 30 19.375V16.875C30 16.5298 29.7015 16.25 29.3333 16.25Z" fill="white"/>
<path d="M29.3333 23.75H26.6667C26.2985 23.75 26 24.0298 26 24.375V26.875C26 27.2202 26.2985 27.5 26.6667 27.5H29.3333C29.7015 27.5 30 27.2202 30 26.875V24.375C30 24.0298 29.7015 23.75 29.3333 23.75Z" fill="white"/>
<path d="M21.3333 23.75H18.6667C18.2985 23.75 18 24.0298 18 24.375V26.875C18 27.2202 18.2985 27.5 18.6667 27.5H21.3333C21.7015 27.5 22 27.2202 22 26.875V24.375C22 24.0298 21.7015 23.75 21.3333 23.75Z" fill="white"/>
</svg>
