<svg width="21" height="21" viewBox="0 0 21 21" fill="none" xmlns="http://www.w3.org/2000/svg">
<path d="M13.4701 8.2918C13.2535 8.2918 13.0615 8.15232 12.9946 7.9463L10.4127 0V16.5836L16.2212 20.8037C16.613 21.0884 17.1402 20.7053 16.9906 20.2447L14.8842 13.7619C14.8173 13.5559 14.8906 13.3302 15.0658 13.2029L20.5804 9.1963C20.9723 8.9116 20.7709 8.2918 20.2865 8.2918H13.4701Z" fill="#7A7A7A"/>
<path d="M3.83478 20.2447C3.68511 20.7053 4.21235 21.0884 4.6042 20.8037L10.4127 16.5836V0L7.83077 7.9463C7.76383 8.15232 7.57185 8.2918 7.35524 8.2918H0.538842C0.0544798 8.2918 -0.146907 8.9116 0.244949 9.1963L5.75953 13.2029C5.93477 13.3302 6.0081 13.5559 5.94117 13.7619L3.83478 20.2447Z" fill="#E98446"/>
</svg>
