<svg width="60" height="60" viewBox="0 0 60 60" fill="none" xmlns="http://www.w3.org/2000/svg">
<circle cx="30" cy="30" r="30" fill="white"/>
<path d="M27 21H22C21.4477 21 21 21.4477 21 22V27C21 27.5523 21.4477 28 22 28H27C27.5523 28 28 27.5523 28 27V22C28 21.4477 27.5523 21 27 21Z" stroke="#1E4391" stroke-width="2"/>
<path d="M27 32H22C21.4477 32 21 32.4477 21 33V38C21 38.5523 21.4477 39 22 39H27C27.5523 39 28 38.5523 28 38V33C28 32.4477 27.5523 32 27 32Z" stroke="#1E4391" stroke-width="2"/>
<path d="M38 21H33C32.4477 21 32 21.4477 32 22V27C32 27.5523 32.4477 28 33 28H38C38.5523 28 39 27.5523 39 27V22C39 21.4477 38.5523 21 38 21Z" stroke="#1E4391" stroke-width="2"/>
<path d="M33.5 31H31.5C31.2239 31 31 31.2239 31 31.5V33.5C31 33.7761 31.2239 34 31.5 34H33.5C33.7761 34 34 33.7761 34 33.5V31.5C34 31.2239 33.7761 31 33.5 31Z" fill="#1E4391"/>
<path d="M36.5 34H34.5C34.2239 34 34 34.2239 34 34.5V36.5C34 36.7761 34.2239 37 34.5 37H36.5C36.7761 37 37 36.7761 37 36.5V34.5C37 34.2239 36.7761 34 36.5 34Z" fill="#1E4391"/>
<path d="M39.5 31H37.5C37.2239 31 37 31.2239 37 31.5V33.5C37 33.7761 37.2239 34 37.5 34H39.5C39.7761 34 40 33.7761 40 33.5V31.5C40 31.2239 39.7761 31 39.5 31Z" fill="#1E4391"/>
<path d="M39.5 37H37.5C37.2239 37 37 37.2239 37 37.5V39.5C37 39.7761 37.2239 40 37.5 40H39.5C39.7761 40 40 39.7761 40 39.5V37.5C40 37.2239 39.7761 37 39.5 37Z" fill="#1E4391"/>
<path d="M33.5 37H31.5C31.2239 37 31 37.2239 31 37.5V39.5C31 39.7761 31.2239 40 31.5 40H33.5C33.7761 40 34 39.7761 34 39.5V37.5C34 37.2239 33.7761 37 33.5 37Z" fill="#1E4391"/>
</svg>
