<svg width="238" height="238" viewBox="0 0 238 238" fill="none" xmlns="http://www.w3.org/2000/svg">
<path d="M89.25 29.75H39.6667C34.1898 29.75 29.75 34.1898 29.75 39.6667V89.25C29.75 94.7268 34.1898 99.1666 39.6667 99.1666H89.25C94.7268 99.1666 99.1666 94.7268 99.1666 89.25V39.6667C99.1666 34.1898 94.7268 29.75 89.25 29.75Z" stroke="#1E4391" stroke-width="9"/>
<path d="M89.25 138.833H39.6667C34.1898 138.833 29.75 143.273 29.75 148.75V198.333C29.75 203.81 34.1898 208.25 39.6667 208.25H89.25C94.7268 208.25 99.1666 203.81 99.1666 198.333V148.75C99.1666 143.273 94.7268 138.833 89.25 138.833Z" stroke="#1E4391" stroke-width="9"/>
<path d="M198.333 29.75H148.75C143.273 29.75 138.833 34.1898 138.833 39.6667V89.25C138.833 94.7268 143.273 99.1666 148.75 99.1666H198.333C203.81 99.1666 208.25 94.7268 208.25 89.25V39.6667C208.25 34.1898 203.81 29.75 198.333 29.75Z" stroke="#1E4391" stroke-width="9"/>
<path d="M153.709 128.917H133.875C131.137 128.917 128.917 131.137 128.917 133.875V153.708C128.917 156.447 131.137 158.667 133.875 158.667H153.709C156.447 158.667 158.667 156.447 158.667 153.708V133.875C158.667 131.137 156.447 128.917 153.709 128.917Z" fill="#1E4391"/>
<path d="M183.459 158.667H163.625C160.887 158.667 158.667 160.887 158.667 163.625V183.458C158.667 186.197 160.887 188.417 163.625 188.417H183.459C186.197 188.417 188.417 186.197 188.417 183.458V163.625C188.417 160.887 186.197 158.667 183.459 158.667Z" fill="#1E4391"/>
<path d="M213.209 128.917H193.375C190.637 128.917 188.417 131.137 188.417 133.875V153.708C188.417 156.447 190.637 158.667 193.375 158.667H213.209C215.947 158.667 218.167 156.447 218.167 153.708V133.875C218.167 131.137 215.947 128.917 213.209 128.917Z" fill="#1E4391"/>
<path d="M213.209 188.417H193.375C190.637 188.417 188.417 190.637 188.417 193.375V213.208C188.417 215.947 190.637 218.167 193.375 218.167H213.209C215.947 218.167 218.167 215.947 218.167 213.208V193.375C218.167 190.637 215.947 188.417 213.209 188.417Z" fill="#1E4391"/>
<path d="M153.709 188.417H133.875C131.137 188.417 128.917 190.637 128.917 193.375V213.208C128.917 215.947 131.137 218.167 133.875 218.167H153.709C156.447 218.167 158.667 215.947 158.667 213.208V193.375C158.667 190.637 156.447 188.417 153.709 188.417Z" fill="#1E4391"/>
</svg>
