<svg width="61" height="60" viewBox="0 0 61 60" fill="none" xmlns="http://www.w3.org/2000/svg">
<ellipse cx="30.7375" cy="30" rx="29.9967" ry="30" fill="white"/>
<g clip-path="url(#clip0_289_17351)">
<path fill-rule="evenodd" clip-rule="evenodd" d="M25.7382 19C25.186 19 24.7383 19.4477 24.7383 20V21H23.7384C22.0818 21 20.7388 22.3432 20.7388 24V38C20.7388 39.6569 22.0818 41 23.7384 41H31.8386C31.2527 40.4259 30.7674 39.7496 30.4113 39H23.7384C23.1862 39 22.7386 38.5523 22.7386 38V29H38.7368V29.2899C39.4591 29.5049 40.1327 29.8334 40.7366 30.2547V24C40.7366 22.3432 39.3936 21 37.7369 21H36.737V20C36.737 19.4477 36.2894 19 35.7371 19C35.1849 19 34.7373 19.4477 34.7373 20V21H26.7381V20C26.7381 19.4477 26.2904 19 25.7382 19ZM34.7373 24V23H26.7381V24C26.7381 24.5523 26.2904 25 25.7382 25C25.186 25 24.7383 24.5523 24.7383 24V23H23.7384C23.1862 23 22.7386 23.4477 22.7386 24V27H38.7368V24C38.7368 23.4477 38.2892 23 37.7369 23H36.737V24C36.737 24.5523 36.2894 25 35.7371 25C35.1849 25 34.7373 24.5523 34.7373 24Z" fill="#1E4391"/>
<path d="M35.7368 34C35.7368 33.4477 36.1845 33 36.7367 33C37.2889 33 37.7366 33.4477 37.7366 34V35.703L38.6166 36.583C39.0071 36.9736 39.0071 37.6067 38.6166 37.9973C38.2261 38.3878 37.593 38.3878 37.2026 37.9973L36.0297 36.8243C35.8196 36.6142 35.7225 36.3338 35.7385 36.0588C35.7374 36.0393 35.7368 36.0197 35.7368 36V34Z" fill="#1E4391"/>
<path fill-rule="evenodd" clip-rule="evenodd" d="M42.7362 36C42.7362 39.3137 40.0502 42 36.7369 42C33.4236 42 30.7375 39.3137 30.7375 36C30.7375 32.6863 33.4236 30 36.7369 30C40.0502 30 42.7362 32.6863 42.7362 36ZM32.7192 36C32.7192 38.2191 34.518 40.0181 36.7369 40.0181C38.9558 40.0181 40.7546 38.2191 40.7546 36C40.7546 33.7809 38.9558 31.9819 36.7369 31.9819C34.518 31.9819 32.7192 33.7809 32.7192 36Z" fill="#1E4391"/>
</g>
<defs>
<clipPath id="clip0_289_17351">
<rect width="23.9974" height="24" fill="white" transform="translate(18.7388 18)"/>
</clipPath>
</defs>
</svg>
